<mxfile host="app.diagrams.net" modified="2021-02-06T19:21:54.601Z" agent="5.0 (Macintosh; Intel Mac OS X 10_15_6) AppleWebKit/605.1.15 (KHTML, like Gecko) Version/14.0.2 Safari/605.1.15" etag="_XE3XDGOLx5X-ceEqZfb" version="14.2.9" type="github">
  <diagram id="C5RBs43oDa-KdzZeNtuy" name="Page-1">
    <mxGraphModel dx="1186" dy="1964" grid="1" gridSize="10" guides="1" tooltips="1" connect="1" arrows="1" fold="1" page="1" pageScale="1" pageWidth="827" pageHeight="1169" math="0" shadow="0">
      <root>
        <mxCell id="WIyWlLk6GJQsqaUBKTNV-0" />
        <mxCell id="WIyWlLk6GJQsqaUBKTNV-1" parent="WIyWlLk6GJQsqaUBKTNV-0" />
        <mxCell id="Os3kQ1dHO9RdM6p-BYmI-0" value="Start" style="strokeWidth=2;html=1;shape=mxgraph.flowchart.start_1;whiteSpace=wrap;" vertex="1" parent="WIyWlLk6GJQsqaUBKTNV-1">
          <mxGeometry x="260" y="-1070" width="140" height="60" as="geometry" />
        </mxCell>
        <mxCell id="Os3kQ1dHO9RdM6p-BYmI-1" value="" style="rounded=0;html=1;jettySize=auto;orthogonalLoop=1;fontSize=11;endArrow=block;endFill=0;endSize=8;strokeWidth=1;shadow=0;labelBackgroundColor=none;edgeStyle=orthogonalEdgeStyle;" edge="1" parent="WIyWlLk6GJQsqaUBKTNV-1">
          <mxGeometry relative="1" as="geometry">
            <mxPoint x="330" y="100" as="sourcePoint" />
            <mxPoint x="330" y="150" as="targetPoint" />
          </mxGeometry>
        </mxCell>
        <mxCell id="Os3kQ1dHO9RdM6p-BYmI-4" value="" style="rounded=0;html=1;jettySize=auto;orthogonalLoop=1;fontSize=11;endArrow=block;endFill=0;endSize=8;strokeWidth=1;shadow=0;labelBackgroundColor=none;edgeStyle=orthogonalEdgeStyle;" edge="1" parent="WIyWlLk6GJQsqaUBKTNV-1">
          <mxGeometry relative="1" as="geometry">
            <mxPoint x="330" y="210" as="sourcePoint" />
            <mxPoint x="330" y="260" as="targetPoint" />
          </mxGeometry>
        </mxCell>
        <mxCell id="Os3kQ1dHO9RdM6p-BYmI-5" value="Input the variable number_of_shares_sold" style="shape=parallelogram;perimeter=parallelogramPerimeter;whiteSpace=wrap;html=1;fixedSize=1;" vertex="1" parent="WIyWlLk6GJQsqaUBKTNV-1">
          <mxGeometry x="235" y="260" width="190" height="60" as="geometry" />
        </mxCell>
        <mxCell id="Os3kQ1dHO9RdM6p-BYmI-6" value="Output &quot;Hello Cindy, enter the&lt;br&gt;number of shares sold: &quot;" style="rounded=0;whiteSpace=wrap;html=1;" vertex="1" parent="WIyWlLk6GJQsqaUBKTNV-1">
          <mxGeometry x="250" y="150" width="170" height="60" as="geometry" />
        </mxCell>
        <mxCell id="Os3kQ1dHO9RdM6p-BYmI-7" value="" style="rounded=0;html=1;jettySize=auto;orthogonalLoop=1;fontSize=11;endArrow=block;endFill=0;endSize=8;strokeWidth=1;shadow=0;labelBackgroundColor=none;edgeStyle=orthogonalEdgeStyle;" edge="1" parent="WIyWlLk6GJQsqaUBKTNV-1">
          <mxGeometry relative="1" as="geometry">
            <mxPoint x="330" y="320" as="sourcePoint" />
            <mxPoint x="330" y="370" as="targetPoint" />
          </mxGeometry>
        </mxCell>
        <mxCell id="Os3kQ1dHO9RdM6p-BYmI-8" value="Output &quot;Enter the purchase price &amp;nbsp;of each share: $&quot;" style="rounded=0;whiteSpace=wrap;html=1;" vertex="1" parent="WIyWlLk6GJQsqaUBKTNV-1">
          <mxGeometry x="250" y="480" width="170" height="60" as="geometry" />
        </mxCell>
        <mxCell id="Os3kQ1dHO9RdM6p-BYmI-9" value="" style="rounded=0;html=1;jettySize=auto;orthogonalLoop=1;fontSize=11;endArrow=block;endFill=0;endSize=8;strokeWidth=1;shadow=0;labelBackgroundColor=none;edgeStyle=orthogonalEdgeStyle;" edge="1" parent="WIyWlLk6GJQsqaUBKTNV-1">
          <mxGeometry relative="1" as="geometry">
            <mxPoint x="329.5" y="650" as="sourcePoint" />
            <mxPoint x="329.5" y="700" as="targetPoint" />
          </mxGeometry>
        </mxCell>
        <mxCell id="Os3kQ1dHO9RdM6p-BYmI-10" value="Input the variable purchase_price_of_each_share" style="shape=parallelogram;perimeter=parallelogramPerimeter;whiteSpace=wrap;html=1;fixedSize=1;" vertex="1" parent="WIyWlLk6GJQsqaUBKTNV-1">
          <mxGeometry x="235" y="590" width="200" height="60" as="geometry" />
        </mxCell>
        <mxCell id="Os3kQ1dHO9RdM6p-BYmI-12" value="Output &quot;Enter the sale price of each share: $&quot;" style="rounded=0;whiteSpace=wrap;html=1;" vertex="1" parent="WIyWlLk6GJQsqaUBKTNV-1">
          <mxGeometry x="260" y="800" width="160" height="60" as="geometry" />
        </mxCell>
        <mxCell id="Os3kQ1dHO9RdM6p-BYmI-13" value="" style="rounded=0;html=1;jettySize=auto;orthogonalLoop=1;fontSize=11;endArrow=block;endFill=0;endSize=8;strokeWidth=1;shadow=0;labelBackgroundColor=none;edgeStyle=orthogonalEdgeStyle;" edge="1" parent="WIyWlLk6GJQsqaUBKTNV-1">
          <mxGeometry relative="1" as="geometry">
            <mxPoint x="329.5" y="750" as="sourcePoint" />
            <mxPoint x="329.5" y="800" as="targetPoint" />
          </mxGeometry>
        </mxCell>
        <mxCell id="Os3kQ1dHO9RdM6p-BYmI-14" value="Input the variable selling_price_of_each_share" style="shape=parallelogram;perimeter=parallelogramPerimeter;whiteSpace=wrap;html=1;fixedSize=1;" vertex="1" parent="WIyWlLk6GJQsqaUBKTNV-1">
          <mxGeometry x="222.5" y="910" width="215" height="70" as="geometry" />
        </mxCell>
        <mxCell id="Os3kQ1dHO9RdM6p-BYmI-15" value="Store the numerical value in &amp;nbsp;number_of_shares_sold" style="strokeWidth=2;html=1;shape=mxgraph.flowchart.stored_data;whiteSpace=wrap;" vertex="1" parent="WIyWlLk6GJQsqaUBKTNV-1">
          <mxGeometry x="240" y="370" width="180" height="60" as="geometry" />
        </mxCell>
        <mxCell id="Os3kQ1dHO9RdM6p-BYmI-16" value="" style="rounded=0;html=1;jettySize=auto;orthogonalLoop=1;fontSize=11;endArrow=block;endFill=0;endSize=8;strokeWidth=1;shadow=0;labelBackgroundColor=none;edgeStyle=orthogonalEdgeStyle;" edge="1" parent="WIyWlLk6GJQsqaUBKTNV-1">
          <mxGeometry relative="1" as="geometry">
            <mxPoint x="330" y="430" as="sourcePoint" />
            <mxPoint x="330" y="480" as="targetPoint" />
          </mxGeometry>
        </mxCell>
        <mxCell id="Os3kQ1dHO9RdM6p-BYmI-17" value="" style="rounded=0;html=1;jettySize=auto;orthogonalLoop=1;fontSize=11;endArrow=block;endFill=0;endSize=8;strokeWidth=1;shadow=0;labelBackgroundColor=none;edgeStyle=orthogonalEdgeStyle;" edge="1" parent="WIyWlLk6GJQsqaUBKTNV-1">
          <mxGeometry relative="1" as="geometry">
            <mxPoint x="330" y="540" as="sourcePoint" />
            <mxPoint x="330" y="590" as="targetPoint" />
          </mxGeometry>
        </mxCell>
        <mxCell id="Os3kQ1dHO9RdM6p-BYmI-18" value="Store the numerical value in purchase_price_of_each_share&amp;nbsp;" style="strokeWidth=2;html=1;shape=mxgraph.flowchart.stored_data;whiteSpace=wrap;" vertex="1" parent="WIyWlLk6GJQsqaUBKTNV-1">
          <mxGeometry x="222.5" y="700" width="215" height="60" as="geometry" />
        </mxCell>
        <mxCell id="Os3kQ1dHO9RdM6p-BYmI-19" value="" style="rounded=0;html=1;jettySize=auto;orthogonalLoop=1;fontSize=11;endArrow=block;endFill=0;endSize=8;strokeWidth=1;shadow=0;labelBackgroundColor=none;edgeStyle=orthogonalEdgeStyle;" edge="1" parent="WIyWlLk6GJQsqaUBKTNV-1">
          <mxGeometry relative="1" as="geometry">
            <mxPoint x="330" y="860" as="sourcePoint" />
            <mxPoint x="330" y="910" as="targetPoint" />
          </mxGeometry>
        </mxCell>
        <mxCell id="Os3kQ1dHO9RdM6p-BYmI-20" value="" style="rounded=0;html=1;jettySize=auto;orthogonalLoop=1;fontSize=11;endArrow=block;endFill=0;endSize=8;strokeWidth=1;shadow=0;labelBackgroundColor=none;edgeStyle=orthogonalEdgeStyle;" edge="1" parent="WIyWlLk6GJQsqaUBKTNV-1">
          <mxGeometry relative="1" as="geometry">
            <mxPoint x="330" y="980" as="sourcePoint" />
            <mxPoint x="330" y="1030" as="targetPoint" />
          </mxGeometry>
        </mxCell>
        <mxCell id="Os3kQ1dHO9RdM6p-BYmI-21" value="Store the numerical value in selling_price_of_each_share" style="strokeWidth=2;html=1;shape=mxgraph.flowchart.stored_data;whiteSpace=wrap;" vertex="1" parent="WIyWlLk6GJQsqaUBKTNV-1">
          <mxGeometry x="232.5" y="1030" width="195" height="60" as="geometry" />
        </mxCell>
        <mxCell id="Os3kQ1dHO9RdM6p-BYmI-22" value="" style="rounded=0;html=1;jettySize=auto;orthogonalLoop=1;fontSize=11;endArrow=block;endFill=0;endSize=8;strokeWidth=1;shadow=0;labelBackgroundColor=none;edgeStyle=orthogonalEdgeStyle;" edge="1" parent="WIyWlLk6GJQsqaUBKTNV-1">
          <mxGeometry relative="1" as="geometry">
            <mxPoint x="330" y="1090" as="sourcePoint" />
            <mxPoint x="330" y="1140" as="targetPoint" />
          </mxGeometry>
        </mxCell>
        <mxCell id="Os3kQ1dHO9RdM6p-BYmI-23" value="Store the numerical value after calculation in &lt;br&gt;amount_invested = number_of_shares_sold * purchase_price_of_each_share" style="strokeWidth=2;html=1;shape=mxgraph.flowchart.stored_data;whiteSpace=wrap;" vertex="1" parent="WIyWlLk6GJQsqaUBKTNV-1">
          <mxGeometry x="180" y="1140" width="300" height="60" as="geometry" />
        </mxCell>
        <mxCell id="Os3kQ1dHO9RdM6p-BYmI-24" value="" style="rounded=0;html=1;jettySize=auto;orthogonalLoop=1;fontSize=11;endArrow=block;endFill=0;endSize=8;strokeWidth=1;shadow=0;labelBackgroundColor=none;edgeStyle=orthogonalEdgeStyle;" edge="1" parent="WIyWlLk6GJQsqaUBKTNV-1">
          <mxGeometry relative="1" as="geometry">
            <mxPoint x="330" y="1200" as="sourcePoint" />
            <mxPoint x="330" y="1250" as="targetPoint" />
          </mxGeometry>
        </mxCell>
        <mxCell id="Os3kQ1dHO9RdM6p-BYmI-25" value="Store the numerical value after&lt;br&gt;&amp;nbsp;calculation in amount_received_after_selling_stock&amp;nbsp;= number_of_shares_sold * selling_price_of_each_share&lt;span style=&quot;color: rgba(255 , 255 , 255 , 0.85) ; font-family: &amp;#34;menlo&amp;#34; ; background-color: rgb(31 , 31 , 36)&quot;&gt;&lt;br&gt;&lt;br&gt;&lt;/span&gt;" style="strokeWidth=2;html=1;shape=mxgraph.flowchart.stored_data;whiteSpace=wrap;" vertex="1" parent="WIyWlLk6GJQsqaUBKTNV-1">
          <mxGeometry x="155" y="1250" width="350" height="60" as="geometry" />
        </mxCell>
        <mxCell id="Os3kQ1dHO9RdM6p-BYmI-26" value="" style="rounded=0;html=1;jettySize=auto;orthogonalLoop=1;fontSize=11;endArrow=block;endFill=0;endSize=8;strokeWidth=1;shadow=0;labelBackgroundColor=none;edgeStyle=orthogonalEdgeStyle;" edge="1" parent="WIyWlLk6GJQsqaUBKTNV-1">
          <mxGeometry relative="1" as="geometry">
            <mxPoint x="329.5" y="1310" as="sourcePoint" />
            <mxPoint x="329.5" y="1360" as="targetPoint" />
          </mxGeometry>
        </mxCell>
        <mxCell id="Os3kQ1dHO9RdM6p-BYmI-27" value="Store the numerical value after calculation in total_service_charges_fee = amount_invested * brokerage_firm_service_charge_fee" style="strokeWidth=2;html=1;shape=mxgraph.flowchart.stored_data;whiteSpace=wrap;" vertex="1" parent="WIyWlLk6GJQsqaUBKTNV-1">
          <mxGeometry x="160" y="1360" width="340" height="60" as="geometry" />
        </mxCell>
        <mxCell id="Os3kQ1dHO9RdM6p-BYmI-28" value="Store the numerical value after calculation in gained_total = amount_received_after_selling_stock - total_service_charges_fee&amp;nbsp;" style="strokeWidth=2;html=1;shape=mxgraph.flowchart.stored_data;whiteSpace=wrap;" vertex="1" parent="WIyWlLk6GJQsqaUBKTNV-1">
          <mxGeometry x="125" y="1470" width="410" height="60" as="geometry" />
        </mxCell>
        <mxCell id="Os3kQ1dHO9RdM6p-BYmI-29" value="" style="rounded=0;html=1;jettySize=auto;orthogonalLoop=1;fontSize=11;endArrow=block;endFill=0;endSize=8;strokeWidth=1;shadow=0;labelBackgroundColor=none;edgeStyle=orthogonalEdgeStyle;" edge="1" parent="WIyWlLk6GJQsqaUBKTNV-1">
          <mxGeometry relative="1" as="geometry">
            <mxPoint x="330" y="1420" as="sourcePoint" />
            <mxPoint x="330" y="1470" as="targetPoint" />
          </mxGeometry>
        </mxCell>
        <mxCell id="Os3kQ1dHO9RdM6p-BYmI-31" value="" style="rounded=0;html=1;jettySize=auto;orthogonalLoop=1;fontSize=11;endArrow=block;endFill=0;endSize=8;strokeWidth=1;shadow=0;labelBackgroundColor=none;edgeStyle=orthogonalEdgeStyle;" edge="1" parent="WIyWlLk6GJQsqaUBKTNV-1">
          <mxGeometry relative="1" as="geometry">
            <mxPoint x="330" y="1530" as="sourcePoint" />
            <mxPoint x="330" y="1580" as="targetPoint" />
          </mxGeometry>
        </mxCell>
        <mxCell id="Os3kQ1dHO9RdM6p-BYmI-32" value="Store the numerical value after calculation in &amp;nbsp;amount_gained_or_lost =&lt;br&gt;&amp;nbsp;amount_invested * brokerage _firm_service_charge_fee" style="strokeWidth=2;html=1;shape=mxgraph.flowchart.stored_data;whiteSpace=wrap;" vertex="1" parent="WIyWlLk6GJQsqaUBKTNV-1">
          <mxGeometry x="150" y="1580" width="360" height="60" as="geometry" />
        </mxCell>
        <mxCell id="Os3kQ1dHO9RdM6p-BYmI-33" value="Output &quot;Total Amount Invested: $&quot;, amount_invested&amp;nbsp;" style="shape=parallelogram;perimeter=parallelogramPerimeter;whiteSpace=wrap;html=1;fixedSize=1;" vertex="1" parent="WIyWlLk6GJQsqaUBKTNV-1">
          <mxGeometry x="205" y="1800" width="250" height="60" as="geometry" />
        </mxCell>
        <mxCell id="Os3kQ1dHO9RdM6p-BYmI-34" value="" style="rounded=0;html=1;jettySize=auto;orthogonalLoop=1;fontSize=11;endArrow=block;endFill=0;endSize=8;strokeWidth=1;shadow=0;labelBackgroundColor=none;edgeStyle=orthogonalEdgeStyle;" edge="1" parent="WIyWlLk6GJQsqaUBKTNV-1">
          <mxGeometry relative="1" as="geometry">
            <mxPoint x="330" y="1640" as="sourcePoint" />
            <mxPoint x="330" y="1690" as="targetPoint" />
          </mxGeometry>
        </mxCell>
        <mxCell id="Os3kQ1dHO9RdM6p-BYmI-35" value="Process the variable amount_invested" style="rounded=0;whiteSpace=wrap;html=1;" vertex="1" parent="WIyWlLk6GJQsqaUBKTNV-1">
          <mxGeometry x="220" y="1690" width="220" height="60" as="geometry" />
        </mxCell>
        <mxCell id="Os3kQ1dHO9RdM6p-BYmI-36" value="" style="rounded=0;html=1;jettySize=auto;orthogonalLoop=1;fontSize=11;endArrow=block;endFill=0;endSize=8;strokeWidth=1;shadow=0;labelBackgroundColor=none;edgeStyle=orthogonalEdgeStyle;" edge="1" parent="WIyWlLk6GJQsqaUBKTNV-1">
          <mxGeometry relative="1" as="geometry">
            <mxPoint x="330" y="1750" as="sourcePoint" />
            <mxPoint x="330" y="1800" as="targetPoint" />
          </mxGeometry>
        </mxCell>
        <mxCell id="Os3kQ1dHO9RdM6p-BYmI-38" value="" style="rounded=0;html=1;jettySize=auto;orthogonalLoop=1;fontSize=11;endArrow=block;endFill=0;endSize=8;strokeWidth=1;shadow=0;labelBackgroundColor=none;edgeStyle=orthogonalEdgeStyle;" edge="1" parent="WIyWlLk6GJQsqaUBKTNV-1" source="Os3kQ1dHO9RdM6p-BYmI-33">
          <mxGeometry relative="1" as="geometry">
            <mxPoint x="330" y="1860" as="sourcePoint" />
            <mxPoint x="330" y="1910" as="targetPoint" />
          </mxGeometry>
        </mxCell>
        <mxCell id="Os3kQ1dHO9RdM6p-BYmI-39" value="Process &amp;nbsp;the variable total_service_charges_fee" style="rounded=0;whiteSpace=wrap;html=1;" vertex="1" parent="WIyWlLk6GJQsqaUBKTNV-1">
          <mxGeometry x="240" y="1910" width="190" height="60" as="geometry" />
        </mxCell>
        <mxCell id="Os3kQ1dHO9RdM6p-BYmI-40" value="" style="rounded=0;html=1;jettySize=auto;orthogonalLoop=1;fontSize=11;endArrow=block;endFill=0;endSize=8;strokeWidth=1;shadow=0;labelBackgroundColor=none;edgeStyle=orthogonalEdgeStyle;" edge="1" parent="WIyWlLk6GJQsqaUBKTNV-1">
          <mxGeometry relative="1" as="geometry">
            <mxPoint x="334.5" y="1970" as="sourcePoint" />
            <mxPoint x="334.5" y="2020" as="targetPoint" />
          </mxGeometry>
        </mxCell>
        <mxCell id="Os3kQ1dHO9RdM6p-BYmI-42" value="Output &quot;Total Service Charges: $&quot;, tota_service_charges_feel" style="shape=parallelogram;perimeter=parallelogramPerimeter;whiteSpace=wrap;html=1;fixedSize=1;" vertex="1" parent="WIyWlLk6GJQsqaUBKTNV-1">
          <mxGeometry x="210" y="2020" width="250" height="60" as="geometry" />
        </mxCell>
        <mxCell id="Os3kQ1dHO9RdM6p-BYmI-43" value="" style="rounded=0;html=1;jettySize=auto;orthogonalLoop=1;fontSize=11;endArrow=block;endFill=0;endSize=8;strokeWidth=1;shadow=0;labelBackgroundColor=none;edgeStyle=orthogonalEdgeStyle;" edge="1" parent="WIyWlLk6GJQsqaUBKTNV-1">
          <mxGeometry relative="1" as="geometry">
            <mxPoint x="334.5" y="2080" as="sourcePoint" />
            <mxPoint x="334.5" y="2130" as="targetPoint" />
          </mxGeometry>
        </mxCell>
        <mxCell id="Os3kQ1dHO9RdM6p-BYmI-44" value="Process the variables amount_invested_after_selling_stock, &amp;nbsp;&lt;br&gt;&amp;nbsp;amount_invested, amount_gained_or_lost" style="rounded=0;whiteSpace=wrap;html=1;" vertex="1" parent="WIyWlLk6GJQsqaUBKTNV-1">
          <mxGeometry x="175" y="2130" width="320" height="60" as="geometry" />
        </mxCell>
        <mxCell id="Os3kQ1dHO9RdM6p-BYmI-45" value="" style="rounded=0;html=1;jettySize=auto;orthogonalLoop=1;fontSize=11;endArrow=block;endFill=0;endSize=8;strokeWidth=1;shadow=0;labelBackgroundColor=none;edgeStyle=orthogonalEdgeStyle;" edge="1" parent="WIyWlLk6GJQsqaUBKTNV-1">
          <mxGeometry relative="1" as="geometry">
            <mxPoint x="334.5" y="2190" as="sourcePoint" />
            <mxPoint x="334.5" y="2240" as="targetPoint" />
            <Array as="points">
              <mxPoint x="334.5" y="2230" />
              <mxPoint x="334.5" y="2230" />
            </Array>
          </mxGeometry>
        </mxCell>
        <mxCell id="Os3kQ1dHO9RdM6p-BYmI-46" value="Output &quot;Amount Gained &amp;nbsp;or Lost: $&quot;, amount_received_after_selling_stock - amount_invested - amount_gained_or_lost" style="shape=parallelogram;perimeter=parallelogramPerimeter;whiteSpace=wrap;html=1;fixedSize=1;" vertex="1" parent="WIyWlLk6GJQsqaUBKTNV-1">
          <mxGeometry x="190" y="2240" width="290" height="60" as="geometry" />
        </mxCell>
        <mxCell id="Os3kQ1dHO9RdM6p-BYmI-47" value="" style="rounded=0;html=1;jettySize=auto;orthogonalLoop=1;fontSize=11;endArrow=block;endFill=0;endSize=8;strokeWidth=1;shadow=0;labelBackgroundColor=none;edgeStyle=orthogonalEdgeStyle;" edge="1" parent="WIyWlLk6GJQsqaUBKTNV-1">
          <mxGeometry relative="1" as="geometry">
            <mxPoint x="334.5" y="2300" as="sourcePoint" />
            <mxPoint x="334.5" y="2350" as="targetPoint" />
          </mxGeometry>
        </mxCell>
        <mxCell id="Os3kQ1dHO9RdM6p-BYmI-48" value="Process amount_received_after_selling_stock" style="rounded=0;whiteSpace=wrap;html=1;" vertex="1" parent="WIyWlLk6GJQsqaUBKTNV-1">
          <mxGeometry x="215" y="2350" width="240" height="60" as="geometry" />
        </mxCell>
        <mxCell id="Os3kQ1dHO9RdM6p-BYmI-49" value="" style="rounded=0;html=1;jettySize=auto;orthogonalLoop=1;fontSize=11;endArrow=block;endFill=0;endSize=8;strokeWidth=1;shadow=0;labelBackgroundColor=none;edgeStyle=orthogonalEdgeStyle;" edge="1" parent="WIyWlLk6GJQsqaUBKTNV-1">
          <mxGeometry relative="1" as="geometry">
            <mxPoint x="334.5" y="2410" as="sourcePoint" />
            <mxPoint x="334.5" y="2460" as="targetPoint" />
          </mxGeometry>
        </mxCell>
        <mxCell id="Os3kQ1dHO9RdM6p-BYmI-50" value="Output &quot;Amount Received After Selling The Stock: $&quot;, amount_received_after_selling_stock" style="shape=parallelogram;perimeter=parallelogramPerimeter;whiteSpace=wrap;html=1;fixedSize=1;" vertex="1" parent="WIyWlLk6GJQsqaUBKTNV-1">
          <mxGeometry x="175" y="2460" width="321.25" height="70" as="geometry" />
        </mxCell>
        <mxCell id="Os3kQ1dHO9RdM6p-BYmI-51" value="" style="rounded=0;html=1;jettySize=auto;orthogonalLoop=1;fontSize=11;endArrow=block;endFill=0;endSize=8;strokeWidth=1;shadow=0;labelBackgroundColor=none;edgeStyle=orthogonalEdgeStyle;" edge="1" parent="WIyWlLk6GJQsqaUBKTNV-1">
          <mxGeometry relative="1" as="geometry">
            <mxPoint x="334.5" y="2530" as="sourcePoint" />
            <mxPoint x="334.5" y="2580" as="targetPoint" />
          </mxGeometry>
        </mxCell>
        <mxCell id="Os3kQ1dHO9RdM6p-BYmI-52" value="Process gained_total" style="rounded=0;whiteSpace=wrap;html=1;" vertex="1" parent="WIyWlLk6GJQsqaUBKTNV-1">
          <mxGeometry x="240.63" y="2580" width="190" height="60" as="geometry" />
        </mxCell>
        <mxCell id="Os3kQ1dHO9RdM6p-BYmI-54" value="" style="rounded=0;html=1;jettySize=auto;orthogonalLoop=1;fontSize=11;endArrow=block;endFill=0;endSize=8;strokeWidth=1;shadow=0;labelBackgroundColor=none;edgeStyle=orthogonalEdgeStyle;" edge="1" parent="WIyWlLk6GJQsqaUBKTNV-1">
          <mxGeometry relative="1" as="geometry">
            <mxPoint x="334.5" y="2640" as="sourcePoint" />
            <mxPoint x="334.5" y="2690" as="targetPoint" />
          </mxGeometry>
        </mxCell>
        <mxCell id="Os3kQ1dHO9RdM6p-BYmI-55" value="Output &quot;Gained Total: $&quot;, gained_total" style="shape=parallelogram;perimeter=parallelogramPerimeter;whiteSpace=wrap;html=1;fixedSize=1;" vertex="1" parent="WIyWlLk6GJQsqaUBKTNV-1">
          <mxGeometry x="210" y="2690" width="250" height="60" as="geometry" />
        </mxCell>
        <mxCell id="Os3kQ1dHO9RdM6p-BYmI-56" value="Store the variable &amp;nbsp;brokerage_firm_service_charge_fee = 0.015 as a double&amp;nbsp;" style="strokeWidth=2;html=1;shape=mxgraph.flowchart.stored_data;whiteSpace=wrap;" vertex="1" parent="WIyWlLk6GJQsqaUBKTNV-1">
          <mxGeometry x="90" y="-960" width="480" height="70" as="geometry" />
        </mxCell>
        <mxCell id="Os3kQ1dHO9RdM6p-BYmI-57" value="Store the variable number_of_shares_sold" style="strokeWidth=2;html=1;shape=mxgraph.flowchart.stored_data;whiteSpace=wrap;" vertex="1" parent="WIyWlLk6GJQsqaUBKTNV-1">
          <mxGeometry x="190" y="-840" width="280" height="60" as="geometry" />
        </mxCell>
        <mxCell id="Os3kQ1dHO9RdM6p-BYmI-58" value="Store the variable purchase_price_of_each_share" style="strokeWidth=2;html=1;shape=mxgraph.flowchart.stored_data;whiteSpace=wrap;" vertex="1" parent="WIyWlLk6GJQsqaUBKTNV-1">
          <mxGeometry x="165" y="-730" width="330" height="60" as="geometry" />
        </mxCell>
        <mxCell id="Os3kQ1dHO9RdM6p-BYmI-59" value="Store the variable selling_price_of_each_share" style="strokeWidth=2;html=1;shape=mxgraph.flowchart.stored_data;whiteSpace=wrap;" vertex="1" parent="WIyWlLk6GJQsqaUBKTNV-1">
          <mxGeometry x="180" y="-620" width="300" height="60" as="geometry" />
        </mxCell>
        <mxCell id="Os3kQ1dHO9RdM6p-BYmI-60" value="Store the variable amount_invested" style="strokeWidth=2;html=1;shape=mxgraph.flowchart.stored_data;whiteSpace=wrap;" vertex="1" parent="WIyWlLk6GJQsqaUBKTNV-1">
          <mxGeometry x="210" y="-510" width="240" height="60" as="geometry" />
        </mxCell>
        <mxCell id="Os3kQ1dHO9RdM6p-BYmI-61" value="Store the variable &amp;nbsp;total_service_charges_fee" style="strokeWidth=2;html=1;shape=mxgraph.flowchart.stored_data;whiteSpace=wrap;" vertex="1" parent="WIyWlLk6GJQsqaUBKTNV-1">
          <mxGeometry x="185" y="-290" width="290" height="60" as="geometry" />
        </mxCell>
        <mxCell id="Os3kQ1dHO9RdM6p-BYmI-62" value="Store the variable &amp;nbsp;amount_gained_or_lost" style="strokeWidth=2;html=1;shape=mxgraph.flowchart.stored_data;whiteSpace=wrap;" vertex="1" parent="WIyWlLk6GJQsqaUBKTNV-1">
          <mxGeometry x="190" y="-180" width="280" height="60" as="geometry" />
        </mxCell>
        <mxCell id="Os3kQ1dHO9RdM6p-BYmI-63" value="Store the amount_received_after_selling_stock" style="strokeWidth=2;html=1;shape=mxgraph.flowchart.stored_data;whiteSpace=wrap;" vertex="1" parent="WIyWlLk6GJQsqaUBKTNV-1">
          <mxGeometry x="210" y="-70" width="240" height="60" as="geometry" />
        </mxCell>
        <mxCell id="Os3kQ1dHO9RdM6p-BYmI-64" value="Store the variable &amp;nbsp;gained_total" style="strokeWidth=2;html=1;shape=mxgraph.flowchart.stored_data;whiteSpace=wrap;" vertex="1" parent="WIyWlLk6GJQsqaUBKTNV-1">
          <mxGeometry x="225" y="40" width="210" height="60" as="geometry" />
        </mxCell>
        <mxCell id="Os3kQ1dHO9RdM6p-BYmI-65" value="" style="rounded=0;html=1;jettySize=auto;orthogonalLoop=1;fontSize=11;endArrow=block;endFill=0;endSize=8;strokeWidth=1;shadow=0;labelBackgroundColor=none;edgeStyle=orthogonalEdgeStyle;" edge="1" parent="WIyWlLk6GJQsqaUBKTNV-1">
          <mxGeometry relative="1" as="geometry">
            <mxPoint x="330" y="-10" as="sourcePoint" />
            <mxPoint x="330" y="40" as="targetPoint" />
          </mxGeometry>
        </mxCell>
        <mxCell id="Os3kQ1dHO9RdM6p-BYmI-66" value="" style="rounded=0;html=1;jettySize=auto;orthogonalLoop=1;fontSize=11;endArrow=block;endFill=0;endSize=8;strokeWidth=1;shadow=0;labelBackgroundColor=none;edgeStyle=orthogonalEdgeStyle;" edge="1" parent="WIyWlLk6GJQsqaUBKTNV-1">
          <mxGeometry relative="1" as="geometry">
            <mxPoint x="330" y="-120" as="sourcePoint" />
            <mxPoint x="330" y="-70" as="targetPoint" />
          </mxGeometry>
        </mxCell>
        <mxCell id="Os3kQ1dHO9RdM6p-BYmI-67" value="" style="rounded=0;html=1;jettySize=auto;orthogonalLoop=1;fontSize=11;endArrow=block;endFill=0;endSize=8;strokeWidth=1;shadow=0;labelBackgroundColor=none;edgeStyle=orthogonalEdgeStyle;" edge="1" parent="WIyWlLk6GJQsqaUBKTNV-1">
          <mxGeometry relative="1" as="geometry">
            <mxPoint x="329.5" y="-230" as="sourcePoint" />
            <mxPoint x="329.5" y="-180" as="targetPoint" />
          </mxGeometry>
        </mxCell>
        <mxCell id="Os3kQ1dHO9RdM6p-BYmI-68" value="" style="rounded=0;html=1;jettySize=auto;orthogonalLoop=1;fontSize=11;endArrow=block;endFill=0;endSize=8;strokeWidth=1;shadow=0;labelBackgroundColor=none;edgeStyle=orthogonalEdgeStyle;" edge="1" parent="WIyWlLk6GJQsqaUBKTNV-1">
          <mxGeometry relative="1" as="geometry">
            <mxPoint x="329.5" y="-340" as="sourcePoint" />
            <mxPoint x="329.5" y="-290" as="targetPoint" />
          </mxGeometry>
        </mxCell>
        <mxCell id="Os3kQ1dHO9RdM6p-BYmI-69" value="Store the variable amount_invested&amp;nbsp;" style="strokeWidth=2;html=1;shape=mxgraph.flowchart.stored_data;whiteSpace=wrap;" vertex="1" parent="WIyWlLk6GJQsqaUBKTNV-1">
          <mxGeometry x="217.5" y="-400" width="225" height="60" as="geometry" />
        </mxCell>
        <mxCell id="Os3kQ1dHO9RdM6p-BYmI-70" value="" style="rounded=0;html=1;jettySize=auto;orthogonalLoop=1;fontSize=11;endArrow=block;endFill=0;endSize=8;strokeWidth=1;shadow=0;labelBackgroundColor=none;edgeStyle=orthogonalEdgeStyle;" edge="1" parent="WIyWlLk6GJQsqaUBKTNV-1">
          <mxGeometry relative="1" as="geometry">
            <mxPoint x="330" y="-450" as="sourcePoint" />
            <mxPoint x="330" y="-400" as="targetPoint" />
          </mxGeometry>
        </mxCell>
        <mxCell id="Os3kQ1dHO9RdM6p-BYmI-72" value="" style="rounded=0;html=1;jettySize=auto;orthogonalLoop=1;fontSize=11;endArrow=block;endFill=0;endSize=8;strokeWidth=1;shadow=0;labelBackgroundColor=none;edgeStyle=orthogonalEdgeStyle;" edge="1" parent="WIyWlLk6GJQsqaUBKTNV-1">
          <mxGeometry relative="1" as="geometry">
            <mxPoint x="330" y="-560" as="sourcePoint" />
            <mxPoint x="330" y="-510" as="targetPoint" />
          </mxGeometry>
        </mxCell>
        <mxCell id="Os3kQ1dHO9RdM6p-BYmI-73" value="" style="rounded=0;html=1;jettySize=auto;orthogonalLoop=1;fontSize=11;endArrow=block;endFill=0;endSize=8;strokeWidth=1;shadow=0;labelBackgroundColor=none;edgeStyle=orthogonalEdgeStyle;" edge="1" parent="WIyWlLk6GJQsqaUBKTNV-1">
          <mxGeometry relative="1" as="geometry">
            <mxPoint x="330" y="-670" as="sourcePoint" />
            <mxPoint x="330" y="-620" as="targetPoint" />
          </mxGeometry>
        </mxCell>
        <mxCell id="Os3kQ1dHO9RdM6p-BYmI-74" value="" style="rounded=0;html=1;jettySize=auto;orthogonalLoop=1;fontSize=11;endArrow=block;endFill=0;endSize=8;strokeWidth=1;shadow=0;labelBackgroundColor=none;edgeStyle=orthogonalEdgeStyle;" edge="1" parent="WIyWlLk6GJQsqaUBKTNV-1">
          <mxGeometry relative="1" as="geometry">
            <mxPoint x="330" y="-780" as="sourcePoint" />
            <mxPoint x="330" y="-730" as="targetPoint" />
          </mxGeometry>
        </mxCell>
        <mxCell id="Os3kQ1dHO9RdM6p-BYmI-75" value="" style="rounded=0;html=1;jettySize=auto;orthogonalLoop=1;fontSize=11;endArrow=block;endFill=0;endSize=8;strokeWidth=1;shadow=0;labelBackgroundColor=none;edgeStyle=orthogonalEdgeStyle;" edge="1" parent="WIyWlLk6GJQsqaUBKTNV-1">
          <mxGeometry relative="1" as="geometry">
            <mxPoint x="330" y="-890" as="sourcePoint" />
            <mxPoint x="330" y="-840" as="targetPoint" />
          </mxGeometry>
        </mxCell>
        <mxCell id="Os3kQ1dHO9RdM6p-BYmI-76" value="" style="rounded=0;html=1;jettySize=auto;orthogonalLoop=1;fontSize=11;endArrow=block;endFill=0;endSize=8;strokeWidth=1;shadow=0;labelBackgroundColor=none;edgeStyle=orthogonalEdgeStyle;" edge="1" parent="WIyWlLk6GJQsqaUBKTNV-1">
          <mxGeometry relative="1" as="geometry">
            <mxPoint x="330" y="-1010" as="sourcePoint" />
            <mxPoint x="330" y="-960" as="targetPoint" />
          </mxGeometry>
        </mxCell>
        <mxCell id="Os3kQ1dHO9RdM6p-BYmI-77" value="" style="rounded=0;html=1;jettySize=auto;orthogonalLoop=1;fontSize=11;endArrow=block;endFill=0;endSize=8;strokeWidth=1;shadow=0;labelBackgroundColor=none;edgeStyle=orthogonalEdgeStyle;" edge="1" parent="WIyWlLk6GJQsqaUBKTNV-1">
          <mxGeometry relative="1" as="geometry">
            <mxPoint x="335.13" y="2750" as="sourcePoint" />
            <mxPoint x="335.13" y="2800" as="targetPoint" />
          </mxGeometry>
        </mxCell>
        <mxCell id="Os3kQ1dHO9RdM6p-BYmI-78" value="End" style="strokeWidth=2;html=1;shape=mxgraph.flowchart.terminator;whiteSpace=wrap;" vertex="1" parent="WIyWlLk6GJQsqaUBKTNV-1">
          <mxGeometry x="286" y="2800" width="100" height="60" as="geometry" />
        </mxCell>
      </root>
    </mxGraphModel>
  </diagram>
</mxfile>
